<?xml version="1.0" standalone="no"?>
<!DOCTYPE svg PUBLIC "-//W3C//DTD SVG 20010904//EN"
 "http://www.w3.org/TR/2001/REC-SVG-20010904/DTD/svg10.dtd">
<svg version="1.0" xmlns="http://www.w3.org/2000/svg"
 width="201.000000pt" height="201.000000pt" viewBox="0 0 201.000000 201.000000"
 preserveAspectRatio="xMidYMid meet">
<metadata>
Created by potrace 1.11, written by Peter Selinger 2001-2013
</metadata>
<g transform="translate(0.000000,201.000000) scale(0.100000,-0.100000)"
fill="#000000" stroke="none">
<path d="M1867 1824 c-16 -13 -34 -21 -40 -18 -7 4 -9 4 -5 -1 7 -8 -54 -55
-327 -257 -77 -57 -147 -108 -155 -115 -50 -41 -327 -246 -337 -250 -11 -4
-34 12 -79 55 -13 12 -27 22 -32 22 -6 0 -24 13 -41 29 -18 17 -35 31 -39 33
-4 2 -6 8 -4 13 2 6 0 7 -3 3 -10 -10 -47 11 -40 22 4 6 -1 7 -11 3 -13 -5
-16 -3 -11 10 4 12 2 14 -10 10 -12 -5 -14 -3 -8 7 5 8 4 11 -2 7 -11 -7 -103
60 -103 75 0 5 -4 6 -10 3 -5 -3 -21 5 -35 19 -14 15 -30 26 -35 26 -6 0 -10
5 -10 10 0 6 -6 10 -13 10 -7 0 -27 12 -45 28 -17 15 -39 33 -49 40 -10 7 -11
10 -3 6 9 -4 12 -3 7 2 -5 5 -12 9 -15 9 -23 2 -51 18 -47 26 4 5 -3 9 -13 9
-18 0 -45 21 -39 31 1 2 0 3 -2 2 -10 -6 -41 20 -42 35 0 11 -2 12 -6 4 -4 -9
-10 -7 -23 8 -27 31 -80 37 -110 12 l-25 -20 0 -791 c0 -580 3 -791 11 -791 6
0 17 7 24 15 7 8 16 13 20 10 4 -3 10 1 13 8 3 6 54 48 115 92 61 44 246 182
412 307 l301 227 252 -191 c139 -105 278 -209 310 -232 32 -23 99 -71 150
-108 56 -41 102 -68 118 -68 31 0 69 33 70 63 5 134 2 660 -3 663 -4 3 -5 11
-2 19 9 23 10 216 2 221 -5 3 -5 10 -2 16 8 13 11 379 3 384 -4 2 -3 21 0 41
7 39 7 221 0 227 -2 3 -17 -7 -32 -20z m-1442 -580 c17 -11 98 -71 182 -134
113 -85 149 -117 142 -126 -6 -7 -90 -73 -188 -147 l-177 -134 0 149 c1 83 -2
152 -7 155 -4 2 -4 9 -1 15 4 6 7 67 7 136 -1 68 2 120 6 115 3 -6 20 -19 36
-29z m1199 -251 c-1 -159 -2 -290 -3 -292 -1 -2 -9 6 -20 17 -10 12 -22 18
-26 14 -5 -4 -5 1 -2 10 4 11 2 15 -6 12 -12 -4 -40 13 -78 49 -11 9 -21 17
-24 17 -5 0 -39 26 -67 53 -10 9 -18 14 -18 10 -1 -5 -10 3 -20 16 -11 13 -20
21 -20 17 0 -3 -9 2 -19 11 -11 9 -18 20 -15 25 3 4 -1 6 -8 3 -7 -2 -24 5
-37 16 -24 19 -24 20 -5 34 10 7 96 72 189 144 94 72 172 131 175 131 3 0 5
-129 4 -287z"/>
</g>
</svg>
